<svg width="18" height="18" viewBox="0 0 18 18" fill="none" xmlns="http://www.w3.org/2000/svg">
<path d="M17.7001 9.03536C17.7001 10.2588 17.6755 11.4857 17.7071 12.7092C17.7599 14.8748 16.3993 16.5482 14.6661 17.2936C13.97 17.5924 13.2388 17.7506 12.4829 17.7506C10.1169 17.7541 7.74736 17.7857 5.38135 17.74C3.59893 17.7049 2.13291 16.9596 1.08174 15.49C0.529785 14.7166 0.266113 13.8377 0.266113 12.885C0.266113 10.3643 0.266113 7.84707 0.266113 5.32637C0.266113 3.26973 1.26807 1.83184 3.04697 0.896682C3.82041 0.492385 4.66064 0.320119 5.53603 0.316604C7.83174 0.316604 10.131 0.302541 12.4267 0.323635C14.2091 0.337697 15.6962 1.01973 16.7931 2.4541C17.4048 3.25567 17.7001 4.17676 17.7001 5.18926C17.7001 6.46895 17.7001 7.75215 17.7001 9.03536ZM1.56338 9.03536C1.56338 10.3256 1.56338 11.6123 1.56338 12.9025C1.56338 13.4791 1.69697 14.0205 1.9958 14.5092C2.77978 15.7924 3.96455 16.4182 5.43408 16.4428C7.79306 16.4779 10.1556 16.4568 12.5181 16.4498C13.0981 16.4498 13.6606 16.3303 14.1845 16.0807C15.6118 15.3986 16.4099 14.3123 16.4028 12.6811C16.3888 10.185 16.3993 7.68887 16.3993 5.19278C16.3993 4.48614 16.1989 3.83926 15.7806 3.26973C14.972 2.17637 13.854 1.63848 12.5181 1.62442C10.1626 1.59629 7.80713 1.61387 5.45166 1.61739C4.94893 1.61739 4.46377 1.71934 3.99268 1.89512C2.69893 2.37676 1.49658 3.59668 1.55283 5.39317C1.59502 6.60957 1.56338 7.82247 1.56338 9.03536Z" fill="black"/>
<path d="M9.00255 12.7617C6.73497 12.7617 4.90684 10.9547 4.90333 8.70469C4.89981 6.48985 6.742 4.67579 8.99551 4.67579C11.2561 4.67227 13.0912 6.48282 13.0947 8.71524C13.0947 10.9441 11.2631 12.7582 9.00255 12.7617ZM9.00255 11.4609C10.5459 11.4609 11.7975 10.227 11.794 8.70821C11.7904 7.20352 10.5389 5.97305 9.00255 5.97305C7.45919 5.97305 6.20059 7.20001 6.20059 8.71524C6.20411 10.234 7.45919 11.4645 9.00255 11.4609Z" fill="black"/>
<path d="M13.5693 3.44531C14.0439 3.44531 14.4306 3.84961 14.4306 4.34531C14.4271 4.84102 14.0368 5.2418 13.5622 5.23828C13.0947 5.23477 12.7114 4.83398 12.7114 4.34883C12.7079 3.85312 13.0947 3.44531 13.5693 3.44531Z" fill="black"/>
</svg>
