<svg width="18" height="28" viewBox="0 0 18 28" fill="none" xmlns="http://www.w3.org/2000/svg">
<path d="M14.8779 0H3.12256C1.98949 0 1.06689 0.9226 1.06689 2.05567V25.9439C1.06689 27.0774 1.98949 28 3.12256 28H14.8774C16.011 28 16.9336 27.0774 16.9336 25.9443V2.05567C16.9336 0.9226 16.011 0 14.8779 0ZM2.00023 3.73333H16.0002V21.4667H2.00023V3.73333ZM3.12256 0.933333H14.8774C15.4967 0.933333 16.0002 1.43687 16.0002 2.05567V2.8H2.00023V2.05567C2.00023 1.43687 2.50376 0.933333 3.12256 0.933333ZM14.8779 27.0667H3.12256C2.50376 27.0667 2.00023 26.5631 2.00023 25.9443V22.4H16.0002V25.9443C16.0002 26.5631 15.4967 27.0667 14.8779 27.0667Z" fill="white" stroke="white" stroke-width="0.5"/>
<path d="M9.00046 22.8667C7.97099 22.8667 7.13379 23.7039 7.13379 24.7334C7.13379 25.7628 7.97099 26.6 9.00046 26.6C10.0299 26.6 10.8671 25.7628 10.8671 24.7334C10.8671 23.7039 10.0299 22.8667 9.00046 22.8667ZM9.00046 25.6667C8.48572 25.6667 8.06712 25.2481 8.06712 24.7334C8.06712 24.2186 8.48572 23.8 9.00046 23.8C9.51519 23.8 9.93379 24.2186 9.93379 24.7334C9.93379 25.2481 9.51519 25.6667 9.00046 25.6667Z" fill="white" stroke="white" stroke-width="0.5"/>
<path d="M7.13366 2.33324H9.00033C9.25839 2.33324 9.46699 2.12464 9.46699 1.86657C9.46699 1.6085 9.25839 1.3999 9.00033 1.3999H7.13366C6.87559 1.3999 6.66699 1.6085 6.66699 1.86657C6.66699 2.12464 6.87559 2.33324 7.13366 2.33324Z" fill="white" stroke="white" stroke-width="0.5"/>
<path d="M10.4003 2.33324H10.8669C11.125 2.33324 11.3336 2.12464 11.3336 1.86657C11.3336 1.6085 11.125 1.3999 10.8669 1.3999H10.4003C10.1422 1.3999 9.93359 1.6085 9.93359 1.86657C9.93359 2.12464 10.1422 2.33324 10.4003 2.33324Z" fill="white" stroke="white" stroke-width="0.5"/>
</svg>
