<svg width="18" height="12" viewBox="0 0 18 12" fill="none" xmlns="http://www.w3.org/2000/svg">
<path fill-rule="evenodd" clip-rule="evenodd" d="M17.7568 1.56237C17.5187 1.38613 16.663 1.38613 15.8162 1.38613C14.9515 1.40373 14.0867 1.40373 13.8837 1.48322C13.6989 1.55367 13.2841 2.55946 12.7462 3.59135C12.1281 4.75645 11.3787 5.88549 10.902 5.86722C10.2758 5.86722 10.426 3.953 10.47 2.53303C10.4785 1.6064 10.3286 1.30624 10.1963 1.22742C9.8698 0.997719 8.9702 0.777781 8.9702 0.777781C8.9702 0.777781 6.27006 0.574446 5.89114 1.73901C6.4115 1.80967 7.29384 1.65043 6.94972 5.25861C6.92336 5.43552 6.53495 6.91737 5.2822 4.91456C4.96451 4.41213 3.76508 1.40373 3.34154 1.38613C1.95584 1.35943 0.580169 1.29781 0.104169 1.56237C-0.346132 1.82727 0.703685 3.89137 2.47713 6.66191C3.91469 8.93778 5.44117 10.7025 8.08786 11.1433C8.59062 11.1967 9.87897 11.2489 10.2937 11.0553C10.5667 10.9227 10.2228 8.96454 11.1669 8.76997C11.5817 8.69088 13.1956 10.8171 13.8042 11.0553C14.1757 11.2052 14.9869 11.2668 15.8162 11.2313C16.7161 11.2052 17.7389 11.3199 17.836 10.7025C18.0569 9.35256 15.1107 7.58754 15.031 6.75859C14.9602 6.15875 16.1075 5.05614 16.6894 4.20899C17.4124 3.18561 18.2071 1.95072 17.7568 1.56237Z" fill="black"/>
</svg>
