<svg width="52" height="52" viewBox="0 0 52 52" fill="none" xmlns="http://www.w3.org/2000/svg">
<path d="M29.1593 21.8985C29.1593 20.1574 27.7428 18.741 26.0018 18.741C24.2608 18.741 22.8442 20.1575 22.8442 21.8985C22.8442 23.6395 24.2608 25.0561 26.0018 25.0561C27.7428 25.0561 29.1593 23.6395 29.1593 21.8985ZM24.7973 21.8985C24.7973 21.2343 25.3376 20.6941 26.0017 20.6941C26.6658 20.6941 27.2061 21.2344 27.2061 21.8985C27.2061 22.5626 26.6658 23.1029 26.0017 23.1029C25.3376 23.1029 24.7973 22.5626 24.7973 21.8985Z" fill="black" stroke="black" stroke-width="0.2"/>
<path d="M50.9259 36.1982L49.3208 32.3651L50.1934 31.0355C50.9153 29.9355 51.1287 28.5772 50.7789 27.3088L49.9677 24.368C49.6122 23.0788 48.7988 21.9677 47.6774 21.2393C47.4966 21.1218 47.2832 21.0694 47.0708 21.0857C46.6117 11.469 39.6212 3.27781 30.1096 1.39988C29.5807 1.29529 29.0668 1.63973 28.9623 2.16883C28.8578 2.69793 29.202 3.2116 29.7312 3.31609C38.661 5.07917 45.1423 12.9763 45.1423 22.0938C45.1423 22.3639 45.1345 22.6356 45.1233 22.9063L43.0843 23.9954C43.1537 23.3653 43.1892 22.7289 43.1892 22.0938C43.1892 21.0335 43.092 19.9956 42.9074 18.9879C42.9034 18.9603 42.898 18.9331 42.8917 18.9061C41.3927 10.9467 34.39 4.90632 26.0018 4.90632C17.61 4.90632 10.6048 10.9519 9.10989 18.9163C9.10481 18.939 9.10013 18.9618 9.09671 18.9849C8.91165 19.9936 8.81429 21.0325 8.81429 22.0938C8.81429 22.7292 8.84993 23.3652 8.91927 23.9954L6.87923 22.9058C6.868 22.6362 6.86117 22.3641 6.86117 22.0938C6.86117 12.9646 13.3524 5.0655 22.2958 3.3115C22.825 3.20769 23.1699 2.69451 23.0661 2.16521C22.9623 1.63611 22.4498 1.2911 21.9198 1.3949C12.3934 3.26326 5.39193 11.4568 4.93265 21.0858C4.72025 21.0695 4.50687 21.1219 4.32611 21.2394C3.20473 21.9678 2.39135 23.0789 2.03578 24.3681L1.22465 27.3089C0.874752 28.5773 1.08823 29.9356 1.8101 31.0356L2.68266 32.3652L1.07749 36.1982C0.869185 36.6956 1.10366 37.2678 1.60112 37.4761C1.72436 37.5277 1.85209 37.5522 1.97787 37.5522C2.35971 37.5522 2.7224 37.3267 2.87914 36.9524L4.37269 33.3856L8.62015 34.2816L4.93441 49.7976C4.8098 50.3224 5.13412 50.8489 5.65882 50.9735C5.7347 50.9916 5.81058 51.0001 5.88529 51.0001C6.32728 51.0001 6.72796 50.6978 6.8346 50.2491L10.2034 36.0673C14.1851 40.5612 19.9354 43.1874 26.0017 43.1874C29.3606 43.1874 32.7032 42.3781 35.6679 40.847C37.9785 39.6537 40.0699 38.0197 41.8001 36.0682L45.1686 50.249C45.2752 50.6978 45.6758 51 46.1179 51C46.1926 51 46.2685 50.9914 46.3444 50.9734C46.8692 50.8488 47.1935 50.3223 47.0688 49.7975L43.3833 34.2817L47.6307 33.3857L49.1243 36.9525C49.281 37.3269 49.6436 37.5523 50.0255 37.5523C50.1512 37.5523 50.279 37.5277 50.4023 37.4762C50.8997 37.2678 51.1341 36.6956 50.9259 36.1982ZM46.7753 24.2381C46.9249 24.1581 47.0512 24.0407 47.1417 23.897L47.3677 23.5379C47.7003 23.9264 47.9465 24.386 48.0848 24.8874L48.8959 27.8283C49.0964 28.5552 48.9742 29.3337 48.5605 29.9641L47.6241 31.391L42.5265 32.4664L41.6238 31.5385C40.9415 30.837 40.5657 29.9119 40.5657 28.9333V26.578C40.5657 26.2886 40.7614 26.036 41.0417 25.9637L41.2715 25.9043C41.9643 26.3078 42.8397 26.3404 43.5677 25.9514L46.7753 24.2381ZM13.2745 25.8171H19.0743C20.8479 25.8171 22.2908 27.26 22.2908 29.0336V36.8744C18.5862 35.9533 15.3439 33.6641 13.2084 30.3653C13.328 29.9028 13.3909 29.4227 13.3909 28.9334V26.578C13.3908 26.3144 13.349 26.0591 13.2745 25.8171ZM19.0743 23.864H10.8694C10.8017 23.2779 10.7673 22.6856 10.7673 22.0938C10.7673 21.3574 10.8209 20.6333 10.9224 19.9246L20.8382 17.5321C24.2161 16.7171 27.7872 16.7171 31.1651 17.5321L41.0809 19.9245C41.1824 20.6332 41.2361 21.3574 41.2361 22.0938C41.2361 22.6855 41.2011 23.278 41.1335 23.864H32.9292C30.0787 23.864 27.7596 26.183 27.7596 29.0336V37.2266C27.1807 37.2927 26.5943 37.3281 26.0018 37.3281C25.4092 37.3281 24.8228 37.2927 24.2439 37.2266V29.0336C24.2439 26.183 21.9248 23.864 19.0743 23.864ZM29.7127 29.0335C29.7127 27.26 31.1556 25.817 32.9292 25.817H38.729C38.6545 26.0591 38.6127 26.3143 38.6127 26.5779V28.9332C38.6127 29.4225 38.6756 29.9026 38.7952 30.3651C36.6597 33.664 33.4174 35.9531 29.7127 36.8742V29.0335ZM26.0018 6.85944C32.913 6.85944 38.7631 11.4859 40.6203 17.8041L31.6232 15.6334C27.9456 14.7461 24.0576 14.7461 20.3803 15.6334L11.3832 17.8041C13.2404 11.4859 19.0904 6.85944 26.0018 6.85944ZM3.10746 27.8282L3.91859 24.8873C4.05697 24.3859 4.30307 23.9263 4.63568 23.5378L4.86176 23.8969C4.95218 24.0405 5.07845 24.158 5.22806 24.238L8.43567 25.9513C9.1637 26.3402 10.0391 26.3077 10.7319 25.9042L10.9618 25.9636C11.2421 26.0359 11.4378 26.2885 11.4378 26.5779V28.9332C11.4378 29.9118 11.062 30.8369 10.3797 31.5384L9.47698 32.4663L4.37943 31.3909L3.44291 29.964C3.02924 29.3336 2.90697 28.5552 3.10746 27.8282ZM26.0018 41.2344C20.0838 41.2344 14.4971 38.4798 10.8796 33.8256L11.7796 32.9004C11.9417 32.7337 12.0911 32.5578 12.2302 32.3756C13.655 34.2796 15.4676 35.8828 17.539 37.0567C20.1069 38.5121 23.0333 39.2813 26.0018 39.2813C28.9708 39.2813 31.8976 38.5118 34.4659 37.0561C36.5368 35.8821 38.3489 34.2792 39.7734 32.3756C39.9125 32.5579 40.0618 32.7338 40.224 32.9005L41.1248 33.8265C37.5112 38.4733 31.8948 41.2344 26.0018 41.2344Z" fill="black" stroke="black" stroke-width="0.2"/>
<path d="M26.002 2.95314H26.0259C26.5652 2.95314 27.0025 2.51593 27.0025 1.97657C27.0025 1.43721 26.5652 1 26.0259 1H26.002C25.4626 1 25.0254 1.43721 25.0254 1.97657C25.0254 2.51593 25.4626 2.95314 26.002 2.95314Z" fill="black" stroke="black" stroke-width="0.2"/>
</svg>
