<svg width="52" height="52" viewBox="0 0 52 52" fill="none" xmlns="http://www.w3.org/2000/svg">
<path d="M25.1668 6.00016H30.1668C30.6271 6.00016 31.0002 5.62707 31.0002 5.16683C31.0002 4.70659 30.6271 4.3335 30.1668 4.3335H25.1668C24.7066 4.3335 24.3335 4.70659 24.3335 5.16683C24.3335 5.62707 24.7066 6.00016 25.1668 6.00016Z" fill="black" stroke="black" stroke-width="0.5"/>
<path d="M33.5003 6.00016H35.167C35.6272 6.00016 36.0003 5.62707 36.0003 5.16683C36.0003 4.70659 35.6272 4.3335 35.167 4.3335H33.5003C33.0401 4.3335 32.667 4.70659 32.667 5.16683C32.667 5.62707 33.0401 6.00016 33.5003 6.00016Z" fill="black" stroke="black" stroke-width="0.5"/>
<path d="M8.50033 17.6667H16.0003C16.4606 17.6667 16.8337 17.2936 16.8337 16.8333C16.8337 16.3731 16.4606 16 16.0003 16H8.50033C8.04009 16 7.66699 16.3731 7.66699 16.8333C7.66699 17.2936 8.04009 17.6667 8.50033 17.6667Z" fill="black" stroke="black" stroke-width="0.5"/>
<path d="M20.1663 17.6667H32.6663C33.1266 17.6667 33.4997 17.2936 33.4997 16.8333C33.4997 16.3731 33.1266 16 32.6663 16H20.1663C19.7061 16 19.333 16.3731 19.333 16.8333C19.333 17.2936 19.7061 17.6667 20.1663 17.6667Z" fill="black" stroke="black" stroke-width="0.5"/>
<path d="M32.6668 20.1665H25.1668C24.7066 20.1665 24.3335 20.5396 24.3335 20.9998C24.3335 21.4601 24.7066 21.8332 25.1668 21.8332H32.6668C33.1271 21.8332 33.5002 21.4601 33.5002 20.9998C33.5002 20.5396 33.1271 20.1665 32.6668 20.1665Z" fill="black" stroke="black" stroke-width="0.5"/>
<path d="M8.50033 21.8332H21.0003C21.4606 21.8332 21.8337 21.4601 21.8337 20.9998C21.8337 20.5396 21.4606 20.1665 21.0003 20.1665H8.50033C8.04009 20.1665 7.66699 20.5396 7.66699 20.9998C7.66699 21.4601 8.04009 21.8332 8.50033 21.8332Z" fill="black" stroke="black" stroke-width="0.5"/>
<path d="M16.8337 25.1666C16.8337 24.7063 16.4606 24.3333 16.0003 24.3333H8.50033C8.04009 24.3333 7.66699 24.7063 7.66699 25.1666C7.66699 25.6268 8.04009 25.9999 8.50033 25.9999H16.0003C16.4606 25.9999 16.8337 25.6268 16.8337 25.1666Z" fill="black" stroke="black" stroke-width="0.5"/>
<path d="M32.6663 24.3333H20.1663C19.7061 24.3333 19.333 24.7063 19.333 25.1666C19.333 25.6268 19.7061 25.9999 20.1663 25.9999H32.6663C33.1266 25.9999 33.4997 25.6268 33.4997 25.1666C33.4997 24.7063 33.1266 24.3333 32.6663 24.3333Z" fill="black" stroke="black" stroke-width="0.5"/>
<path d="M37.6924 29.4635V41.9635C37.6924 42.4238 38.0655 42.7969 38.5257 42.7969C38.986 42.7969 39.359 42.4238 39.359 41.9635V29.4635C39.359 29.0033 38.986 28.6302 38.5257 28.6302C38.0655 28.6302 37.6924 29.0033 37.6924 29.4635Z" fill="black" stroke="black" stroke-width="0.5"/>
<path fill-rule="evenodd" clip-rule="evenodd" d="M39.25 4.33333H46.8333C49.1334 4.33609 50.9972 6.19996 51 8.5V46.8333C50.9972 49.1334 49.1334 50.9972 46.8333 51H16.8333C14.8541 50.9975 13.1487 49.6053 12.75 47.6667H5.16667C2.86662 47.6639 1.00276 45.8 1 43.5V12.6667C1.00005 12.4457 1.08788 12.2337 1.24417 12.0775L12.0775 1.24417C12.2337 1.08788 12.4457 1.00005 12.6667 1H35.1667C37.1459 1.0025 38.8513 2.39465 39.25 4.33333ZM37.6211 39.7843V41.8675L37.6667 41.8333V43.5C37.6667 44.8807 36.5474 46 35.1667 46H5.16667C3.78595 46 2.66667 44.8807 2.66667 43.5V13.5H9.33333C11.6334 13.4972 13.4972 11.6334 13.5 9.33333V2.66667H35.1667C36.5474 2.66667 37.6667 3.78595 37.6667 5.16667V33.5L37.6211 33.4658V35.549L39.3789 36.8672V34.7842L39.3333 34.75V29.3333H44.3333C44.7936 29.3333 45.1667 28.9602 45.1667 28.5C45.1667 28.0398 44.7936 27.6667 44.3333 27.6667H39.3333V25.1667H44.3333C44.7936 25.1667 45.1667 24.7936 45.1667 24.3333C45.1667 23.8731 44.7936 23.5 44.3333 23.5H39.3333V21H44.3333C44.7936 21 45.1667 20.6269 45.1667 20.1667C45.1667 19.7064 44.7936 19.3333 44.3333 19.3333H39.3333V9.33333H41.8333C42.2936 9.33333 42.6667 8.96024 42.6667 8.5C42.6667 8.03976 42.2936 7.66667 41.8333 7.66667H39.3333V6H46.8333C48.214 6 49.3333 7.11929 49.3333 8.5V46.8333C49.3333 48.214 48.214 49.3333 46.8333 49.3333H16.8333C15.7777 49.329 14.8385 48.662 14.4867 47.6667H35.1667C37.4667 47.6639 39.3306 45.8 39.3333 43.5V40.5833L39.3789 40.5492V38.4661L37.6211 39.7843ZM11.8333 9.33333V3.845L3.845 11.8333H9.33333C10.714 11.8333 11.8333 10.714 11.8333 9.33333Z" fill="black"/>
<path d="M46.8333 4.33333L46.8336 4.08333H46.8333V4.33333ZM39.25 4.33333L39.0051 4.38369L39.0462 4.58333H39.25V4.33333ZM51 8.5H51.25V8.4997L51 8.5ZM51 46.8333L51.25 46.8336V46.8333H51ZM46.8333 51V51.25H46.8336L46.8333 51ZM16.8333 51L16.833 51.25H16.8333V51ZM12.75 47.6667L12.9949 47.6163L12.9538 47.4167H12.75V47.6667ZM5.16667 47.6667L5.16637 47.9167H5.16667V47.6667ZM1 43.5H0.75L0.75 43.5003L1 43.5ZM1 12.6667L0.75 12.6666V12.6667H1ZM1.24417 12.0775L1.42092 12.2543L1.42094 12.2543L1.24417 12.0775ZM12.0775 1.24417L12.2543 1.42094L12.2543 1.42092L12.0775 1.24417ZM12.6667 1V0.75H12.6666L12.6667 1ZM35.1667 1L35.167 0.75H35.1667V1ZM37.6211 41.8675H37.3711V42.3675L37.7711 42.0675L37.6211 41.8675ZM37.6211 39.7843L37.4711 39.5843L37.3711 39.6593V39.7843H37.6211ZM37.6667 41.8333H37.9167V41.3333L37.5167 41.6333L37.6667 41.8333ZM2.66667 13.5V13.25H2.41667V13.5H2.66667ZM9.33333 13.5V13.75H9.33363L9.33333 13.5ZM13.5 9.33333L13.75 9.33363V9.33333H13.5ZM13.5 2.66667V2.41667H13.25V2.66667H13.5ZM37.6667 33.5L37.5167 33.7L37.9167 34V33.5H37.6667ZM37.6211 33.4658L37.7711 33.2658L37.3711 32.9658V33.4658H37.6211ZM37.6211 35.549H37.3711V35.674L37.4711 35.749L37.6211 35.549ZM39.3789 36.8672L39.2289 37.0672L39.6289 37.3672V36.8672H39.3789ZM39.3789 34.7842H39.6289V34.6592L39.5289 34.5842L39.3789 34.7842ZM39.3333 34.75H39.0833V34.875L39.1833 34.95L39.3333 34.75ZM39.3333 29.3333V29.0833H39.0833V29.3333H39.3333ZM39.3333 27.6667H39.0833V27.9167H39.3333V27.6667ZM39.3333 25.1667V24.9167H39.0833V25.1667H39.3333ZM39.3333 23.5H39.0833V23.75H39.3333V23.5ZM39.3333 21V20.75H39.0833V21H39.3333ZM39.3333 19.3333H39.0833V19.5833H39.3333V19.3333ZM39.3333 9.33333V9.08333H39.0833V9.33333H39.3333ZM39.3333 7.66667H39.0833V7.91667H39.3333V7.66667ZM39.3333 6V5.75H39.0833V6H39.3333ZM16.8333 49.3333L16.8323 49.5833H16.8333V49.3333ZM14.4867 47.6667V47.4167H14.1331L14.251 47.75L14.4867 47.6667ZM35.1667 47.6667V47.9167H35.167L35.1667 47.6667ZM39.3333 43.5L39.5833 43.5003V43.5H39.3333ZM39.3333 40.5833L39.1833 40.3833L39.0833 40.4583V40.5833H39.3333ZM39.3789 40.5492L39.5289 40.7492L39.6289 40.6742V40.5492H39.3789ZM39.3789 38.4661H39.6289V37.9662L39.2289 38.2661L39.3789 38.4661ZM11.8333 3.845H12.0833V3.24145L11.6566 3.66822L11.8333 3.845ZM3.845 11.8333L3.66822 11.6566L3.24145 12.0833H3.845V11.8333ZM46.8333 4.08333H39.25V4.58333H46.8333V4.08333ZM51.25 8.4997C51.2471 6.06182 49.2715 4.08625 46.8336 4.08333L46.833 4.58333C48.9952 4.58592 50.7474 6.33809 50.75 8.5003L51.25 8.4997ZM51.25 46.8333V8.5H50.75V46.8333H51.25ZM46.8336 51.25C49.2715 51.2471 51.2471 49.2715 51.25 46.8336L50.75 46.833C50.7474 48.9952 48.9952 50.7474 46.833 50.75L46.8336 51.25ZM16.8333 51.25H46.8333V50.75H16.8333V51.25ZM12.5051 47.717C12.9277 49.7718 14.7352 51.2474 16.833 51.25L16.8336 50.75C14.9729 50.7477 13.3697 49.4389 12.9949 47.6163L12.5051 47.717ZM5.16667 47.9167H12.75V47.4167H5.16667V47.9167ZM0.75 43.5003C0.75292 45.9382 2.72849 47.9137 5.16637 47.9167L5.16697 47.4167C3.00476 47.4141 1.25259 45.6619 1.25 43.4997L0.75 43.5003ZM0.75 12.6667V43.5H1.25V12.6667H0.75ZM1.06742 11.9007C0.864238 12.1038 0.750061 12.3793 0.75 12.6666L1.25 12.6667C1.25003 12.512 1.31151 12.3637 1.42092 12.2543L1.06742 11.9007ZM11.9007 1.06739L1.06739 11.9007L1.42094 12.2543L12.2543 1.42094L11.9007 1.06739ZM12.6666 0.75C12.3793 0.750061 12.1038 0.864238 11.9007 1.06742L12.2543 1.42092C12.3637 1.31151 12.512 1.25003 12.6667 1.25L12.6666 0.75ZM35.1667 0.75H12.6667V1.25H35.1667V0.75ZM39.4949 4.28297C39.0723 2.22818 37.2648 0.752648 35.167 0.75L35.1663 1.25C37.0271 1.25235 38.6303 2.56112 39.0051 4.38369L39.4949 4.28297ZM37.8711 41.8675V39.7843H37.3711V41.8675H37.8711ZM37.7711 42.0675L37.8167 42.0333L37.5167 41.6333L37.4711 41.6675L37.7711 42.0675ZM37.4167 41.8333V43.5H37.9167V41.8333H37.4167ZM37.4167 43.5C37.4167 44.7426 36.4093 45.75 35.1667 45.75V46.25C36.6855 46.25 37.9167 45.0188 37.9167 43.5H37.4167ZM35.1667 45.75H5.16667V46.25H35.1667V45.75ZM5.16667 45.75C3.92403 45.75 2.91667 44.7426 2.91667 43.5H2.41667C2.41667 45.0188 3.64788 46.25 5.16667 46.25V45.75ZM2.91667 43.5V13.5H2.41667V43.5H2.91667ZM2.66667 13.75H9.33333V13.25H2.66667V13.75ZM9.33363 13.75C11.7715 13.7471 13.7471 11.7715 13.75 9.33363L13.25 9.33303C13.2474 11.4952 11.4952 13.2474 9.33303 13.25L9.33363 13.75ZM13.75 9.33333V2.66667H13.25V9.33333H13.75ZM13.5 2.91667H35.1667V2.41667H13.5V2.91667ZM35.1667 2.91667C36.4093 2.91667 37.4167 3.92403 37.4167 5.16667H37.9167C37.9167 3.64788 36.6855 2.41667 35.1667 2.41667V2.91667ZM37.4167 5.16667V33.5H37.9167V5.16667H37.4167ZM37.8167 33.3L37.7711 33.2658L37.4711 33.6658L37.5167 33.7L37.8167 33.3ZM37.8711 35.549V33.4658H37.3711V35.549H37.8711ZM37.4711 35.749L39.2289 37.0672L39.5289 36.6672L37.7711 35.349L37.4711 35.749ZM39.1289 34.7842V36.8672H39.6289V34.7842H39.1289ZM39.5289 34.5842L39.4833 34.55L39.1833 34.95L39.2289 34.9842L39.5289 34.5842ZM39.5833 34.75V29.3333H39.0833V34.75H39.5833ZM39.3333 29.5833H44.3333V29.0833H39.3333V29.5833ZM44.3333 29.5833C44.9316 29.5833 45.4167 29.0983 45.4167 28.5H44.9167C44.9167 28.8222 44.6555 29.0833 44.3333 29.0833V29.5833ZM45.4167 28.5C45.4167 27.9017 44.9316 27.4167 44.3333 27.4167V27.9167C44.6555 27.9167 44.9167 28.1778 44.9167 28.5H45.4167ZM44.3333 27.4167H39.3333V27.9167H44.3333V27.4167ZM39.5833 27.6667V25.1667H39.0833V27.6667H39.5833ZM39.3333 25.4167H44.3333V24.9167H39.3333V25.4167ZM44.3333 25.4167C44.9316 25.4167 45.4167 24.9316 45.4167 24.3333H44.9167C44.9167 24.6555 44.6555 24.9167 44.3333 24.9167V25.4167ZM45.4167 24.3333C45.4167 23.735 44.9316 23.25 44.3333 23.25V23.75C44.6555 23.75 44.9167 24.0112 44.9167 24.3333H45.4167ZM44.3333 23.25H39.3333V23.75H44.3333V23.25ZM39.5833 23.5V21H39.0833V23.5H39.5833ZM39.3333 21.25H44.3333V20.75H39.3333V21.25ZM44.3333 21.25C44.9316 21.25 45.4167 20.765 45.4167 20.1667H44.9167C44.9167 20.4888 44.6555 20.75 44.3333 20.75V21.25ZM45.4167 20.1667C45.4167 19.5684 44.9316 19.0833 44.3333 19.0833V19.5833C44.6555 19.5833 44.9167 19.8445 44.9167 20.1667H45.4167ZM44.3333 19.0833H39.3333V19.5833H44.3333V19.0833ZM39.5833 19.3333V9.33333H39.0833V19.3333H39.5833ZM39.3333 9.58333H41.8333V9.08333H39.3333V9.58333ZM41.8333 9.58333C42.4316 9.58333 42.9167 9.09831 42.9167 8.5H42.4167C42.4167 8.82217 42.1555 9.08333 41.8333 9.08333V9.58333ZM42.9167 8.5C42.9167 7.90169 42.4316 7.41667 41.8333 7.41667V7.91667C42.1555 7.91667 42.4167 8.17783 42.4167 8.5H42.9167ZM41.8333 7.41667H39.3333V7.91667H41.8333V7.41667ZM39.5833 7.66667V6H39.0833V7.66667H39.5833ZM39.3333 6.25H46.8333V5.75H39.3333V6.25ZM46.8333 6.25C48.076 6.25 49.0833 7.25736 49.0833 8.5H49.5833C49.5833 6.98122 48.3521 5.75 46.8333 5.75V6.25ZM49.0833 8.5V46.8333H49.5833V8.5H49.0833ZM49.0833 46.8333C49.0833 48.076 48.076 49.0833 46.8333 49.0833V49.5833C48.3521 49.5833 49.5833 48.3521 49.5833 46.8333H49.0833ZM46.8333 49.0833H16.8333V49.5833H46.8333V49.0833ZM16.8344 49.0833C15.8843 49.0794 15.0391 48.4791 14.7224 47.5833L14.251 47.75C14.638 48.8448 15.6711 49.5785 16.8323 49.5833L16.8344 49.0833ZM14.4867 47.9167H35.1667V47.4167H14.4867V47.9167ZM35.167 47.9167C37.6048 47.9137 39.5804 45.9382 39.5833 43.5003L39.0833 43.4997C39.0807 45.6619 37.3286 47.4141 35.1664 47.4167L35.167 47.9167ZM39.5833 43.5V40.5833H39.0833V43.5H39.5833ZM39.4833 40.7833L39.5289 40.7492L39.2289 40.3491L39.1833 40.3833L39.4833 40.7833ZM39.1289 38.4661V40.5492H39.6289V38.4661H39.1289ZM39.2289 38.2661L37.4711 39.5843L37.7711 39.9843L39.5289 38.6661L39.2289 38.2661ZM11.5833 3.845V9.33333H12.0833V3.845H11.5833ZM4.02178 12.0101L12.0101 4.02178L11.6566 3.66822L3.66822 11.6566L4.02178 12.0101ZM9.33333 11.5833H3.845V12.0833H9.33333V11.5833ZM11.5833 9.33333C11.5833 10.576 10.576 11.5833 9.33333 11.5833V12.0833C10.8521 12.0833 12.0833 10.8521 12.0833 9.33333H11.5833Z" fill="black"/>
<path d="M46.833 7.6665H45.1663C44.7061 7.6665 44.333 8.0396 44.333 8.49984C44.333 8.96007 44.7061 9.33317 45.1663 9.33317H46.833C47.2932 9.33317 47.6663 8.96007 47.6663 8.49984C47.6663 8.0396 47.2932 7.6665 46.833 7.6665Z" fill="black" stroke="black" stroke-width="0.5"/>
</svg>
