<svg width="43" height="50" viewBox="0 0 43 50" fill="none" xmlns="http://www.w3.org/2000/svg">
<path d="M42.2264 8.63365C35.347 6.74869 28.4272 3.81364 22.215 0.145874C21.885 -0.0489501 21.4755 -0.0489501 21.1457 0.145874C14.7543 3.91901 8.20838 6.69527 1.13369 8.63365C0.676659 8.75874 0.359863 9.17417 0.359863 9.6481V20.3948C0.359863 31.4614 5.46522 38.7868 9.74822 42.9832C14.3591 47.5012 19.7302 49.9998 21.6803 49.9998C23.6302 49.9998 29.0013 47.5012 33.6122 42.9832C37.8951 38.7869 43.0002 31.4615 43.0002 20.3948V9.648C43.0002 9.17417 42.6834 8.75874 42.2264 8.63365ZM40.8967 20.3947C40.8967 30.7309 36.1349 37.5663 32.14 41.4805C27.6057 45.9234 22.7578 47.8961 21.6803 47.8961C20.6029 47.8961 15.7547 45.9234 11.2203 41.4805C7.22547 37.5662 2.46347 30.7309 2.46347 20.3947V10.4464C9.22889 8.52554 15.5295 5.84479 21.6805 2.27028C27.678 5.74996 34.2929 8.56402 40.8967 10.446V20.3947Z" fill="black"/>
<path d="M12.358 10.3287C12.1451 9.78817 11.5345 9.52264 10.9938 9.73563C9.11493 10.476 7.18642 11.1574 5.26191 11.7611C4.82334 11.8988 4.5249 12.3051 4.5249 12.7646V16.8262C4.5249 17.4071 4.9959 17.878 5.57666 17.878C6.15742 17.878 6.62841 17.4071 6.62841 16.8262V13.5333C8.35487 12.9747 10.0795 12.3568 11.7649 11.6927C12.3054 11.4799 12.571 10.8692 12.358 10.3287Z" fill="black"/>
<path d="M14.3559 10.5285C14.497 10.5285 14.6403 10.5001 14.7777 10.4401L14.797 10.4317C15.3292 10.1985 15.5688 9.57911 15.3356 9.04718C15.1022 8.51505 14.4793 8.27433 13.9477 8.50734L13.9307 8.51466C13.3983 8.74718 13.1579 9.36612 13.3904 9.89835C13.5629 10.2935 13.9502 10.5285 14.3559 10.5285Z" fill="black"/>
<path d="M34.2115 33.914C33.7255 33.5964 33.0737 33.733 32.7557 34.2192C31.889 35.5458 30.8722 36.8161 29.7331 37.9945C28.7964 38.9635 27.7814 39.8666 26.7162 40.6786C26.2544 41.0307 26.1656 41.6907 26.5176 42.1527C26.7247 42.4241 27.0379 42.5669 27.3547 42.5669C27.5772 42.5669 27.8013 42.4966 27.9917 42.3513C29.1406 41.4753 30.2354 40.5013 31.2453 39.4566C32.4769 38.1828 33.5774 36.8078 34.5167 35.3698C34.8346 34.8835 34.6978 34.2317 34.2115 33.914Z" fill="black"/>
<path d="M24.2739 42.3283L24.2135 42.3639C23.7109 42.655 23.5391 43.2983 23.8301 43.801C24.0251 44.1379 24.3782 44.326 24.7414 44.326C24.9201 44.326 25.1015 44.2804 25.2672 44.1842L25.3369 44.1433C25.8381 43.8497 26.0065 43.2055 25.7129 42.7042C25.4192 42.2031 24.7749 42.0351 24.2739 42.3283Z" fill="black"/>
<path d="M14.5115 22.853C13.8657 22.2071 13.0068 21.8516 12.0933 21.8516C11.1799 21.8516 10.3209 22.2072 9.67478 22.853C8.34148 24.1866 8.34148 26.3565 9.67478 27.69L15.8853 33.9003C16.5312 34.546 17.3901 34.9016 18.3037 34.9016C19.2172 34.9016 20.0761 34.546 20.7221 33.9002L33.687 20.9351C35.0202 19.6013 35.0202 17.4316 33.6868 16.0985C33.0409 15.4526 32.182 15.0972 31.2684 15.0972C30.3548 15.0972 29.4959 15.4527 28.8499 16.0985L18.3036 26.6449L14.5115 22.853ZM30.3374 17.586C30.586 17.3375 30.9167 17.2007 31.2685 17.2007C31.6204 17.2007 31.9509 17.3375 32.1996 17.586C32.7128 18.0992 32.7128 18.9346 32.1994 19.4479L19.2347 32.4128C18.9862 32.6613 18.6554 32.7981 18.3037 32.7981C17.9519 32.7981 17.6211 32.6613 17.3725 32.4128L11.1622 26.2026C10.6488 25.6892 10.6488 24.8539 11.162 24.3407C11.4106 24.0922 11.7414 23.9552 12.0932 23.9552C12.4451 23.9552 12.7756 24.092 13.0242 24.3405L17.5598 28.8762C17.7572 29.0734 18.0246 29.1842 18.3036 29.1842C18.5826 29.1842 18.85 29.0735 19.0471 28.8762L30.3374 17.586Z" fill="black"/>
</svg>
