<svg width="51" height="50" viewBox="0 0 51 50" fill="none" xmlns="http://www.w3.org/2000/svg">
<path d="M34.1971 32.1505C32.9984 32.1505 32.0232 31.3064 32.0232 30.269C32.0232 29.2314 32.9984 28.3873 34.1971 28.3873C35.3959 28.3873 36.3711 29.2314 36.3711 30.269C36.3711 30.8146 36.8136 31.2571 37.3593 31.2571C37.9049 31.2571 38.3474 30.8146 38.3474 30.269C38.3474 28.4582 36.9982 26.9356 35.1853 26.5224V26.0084C35.1853 25.4628 34.7428 25.0203 34.1971 25.0203C33.6515 25.0203 33.209 25.4628 33.209 26.0084V26.5224C31.3961 26.9356 30.0469 28.4582 30.0469 30.269C30.0469 32.3962 31.9087 34.1268 34.1971 34.1268C35.3959 34.1268 36.3711 34.9709 36.3711 36.0085C36.3711 37.0461 35.3959 37.8902 34.1971 37.8902C32.9984 37.8902 32.0232 37.0461 32.0232 36.0085C32.0232 35.4628 31.5807 35.0203 31.035 35.0203C30.4894 35.0203 30.0469 35.4628 30.0469 36.0085C30.0469 37.8193 31.3961 39.3419 33.209 39.7551V40.182C33.209 40.7277 33.6515 41.1702 34.1971 41.1702C34.7428 41.1702 35.1853 40.7277 35.1853 40.182V39.7551C36.9982 39.3419 38.3474 37.8193 38.3474 36.0085C38.3474 33.8812 36.4856 32.1505 34.1971 32.1505Z" fill="black"/>
<path d="M45.0195 26.2727C43.7287 24.2613 41.9101 22.6518 39.7604 21.6184C39.2684 21.3818 38.6779 21.5889 38.4416 22.0808C38.2051 22.5727 38.4121 23.163 38.904 23.3995C42.6502 25.2003 45.0707 29.0481 45.0707 33.2022C45.0707 34.9797 44.6326 36.7424 43.8038 38.3002C43.5475 38.7819 43.7302 39.3803 44.212 39.6367C44.3598 39.7153 44.5187 39.7527 44.6753 39.7527C45.0288 39.7527 45.3708 39.5623 45.5485 39.2285C46.5289 37.3861 47.047 35.3022 47.047 33.2022C47.047 30.7357 46.3459 28.3395 45.0195 26.2727Z" fill="black"/>
<path d="M35.75 20.3561L35.6835 20.356C35.1378 20.356 34.6953 20.7984 34.6953 21.3441C34.6953 21.8899 35.1378 22.3323 35.6835 22.3323L35.7407 22.3324C35.7423 22.3324 35.7438 22.3324 35.7454 22.3324C36.289 22.3324 36.7309 21.893 36.7335 21.3489C36.736 20.8031 36.2956 20.3586 35.75 20.3561Z" fill="black"/>
<path d="M29.4984 43.005C25.7523 41.2041 23.3318 37.3563 23.3318 33.2023C23.3318 31.4248 23.7699 29.6621 24.5987 28.1043C24.855 27.6226 24.6723 27.0242 24.1905 26.7678C23.7089 26.5115 23.1102 26.6942 22.854 27.1761C21.8737 29.0185 21.3555 31.1023 21.3555 33.2023C21.3555 35.6688 22.0566 38.0649 23.383 40.1318C24.6738 42.1432 26.4924 43.7527 28.6422 44.7862C28.7802 44.8526 28.9261 44.884 29.0696 44.884C29.4376 44.884 29.7908 44.6775 29.961 44.3238C30.1972 43.8319 29.9903 43.2415 29.4984 43.005Z" fill="black"/>
<path d="M32.7193 44.072L32.6621 44.0718C32.1138 44.0708 31.6719 44.5094 31.6694 45.0553C31.6669 45.6011 32.1074 46.0455 32.6531 46.0481L32.7193 46.0483C33.2649 46.0483 33.7074 45.6058 33.7074 45.0601C33.7074 44.5145 33.2649 44.072 32.7193 44.072Z" fill="black"/>
<path d="M38.6884 17.0129C38.5682 16.7264 38.4209 16.4563 38.2494 16.2058H40.822C43.3284 16.2058 45.3675 14.1667 45.3675 11.6603C45.3675 9.15392 43.3284 7.11475 40.822 7.11475H32.9088C33.4119 6.38331 33.7072 5.49842 33.7072 4.54554C33.7072 2.03917 31.6681 0 29.1617 0H4.95179C2.44542 0 0.40625 2.03917 0.40625 4.54554C0.40625 7.0519 2.44542 9.09107 4.95179 9.09107H12.865C12.3619 9.82251 12.0665 10.7074 12.0665 11.6603C12.0665 12.6132 12.3618 13.4981 12.865 14.2295H10.2878C7.78148 14.2295 5.74231 16.2687 5.74231 18.775C5.74231 20.2145 6.41565 21.499 7.46319 22.3324C6.41565 23.1658 5.74231 24.4503 5.74231 25.8898C5.74231 27.3292 6.41565 28.6137 7.46319 29.4472C6.41565 30.2806 5.74231 31.5651 5.74231 33.0045C5.74231 34.444 6.41565 35.7285 7.46319 36.5619C6.41565 37.3953 5.74231 38.6798 5.74231 40.1193C5.74231 42.6257 7.78148 44.6648 10.2878 44.6648H21.9333C25.0012 47.9462 29.3655 50.001 34.2014 50.001C43.4642 50.001 51.0001 42.4651 51.0001 33.2023C51.0001 25.4929 45.7797 18.9809 38.6884 17.0129ZM40.822 9.09107C42.2387 9.09107 43.3912 10.2437 43.3912 11.6603C43.3912 13.0769 42.2387 14.2295 40.822 14.2295H34.4978H16.6121C15.1953 14.2295 14.0429 13.0769 14.0429 11.6603C14.0429 10.2437 15.1953 9.09107 16.6121 9.09107H40.822ZM4.95179 7.11475C3.53506 7.11475 2.38257 5.96216 2.38257 4.54554C2.38257 3.12891 3.53506 1.97632 4.95179 1.97632H29.1617C30.5784 1.97632 31.7309 3.12891 31.7309 4.54554C31.7309 5.96216 30.5784 7.11475 29.1617 7.11475H4.95179ZM10.2878 16.2058H34.4978C34.8958 16.2058 35.2769 16.2983 35.6188 16.4639C35.1514 16.4247 34.6789 16.4036 34.2014 16.4036C29.5625 16.4036 25.3569 18.2938 22.3139 21.3443H10.2878C8.87122 21.3443 7.71863 20.1917 7.71863 18.775C7.71863 17.3584 8.87122 16.2058 10.2878 16.2058ZM10.2878 23.3206H20.6255C19.5037 24.8575 18.6364 26.5909 18.0856 28.459H10.2878C8.87112 28.459 7.71863 27.3065 7.71863 25.8898C7.71863 24.4732 8.87112 23.3206 10.2878 23.3206ZM10.2878 30.4353H17.6319C17.4819 31.3358 17.4027 32.2599 17.4027 33.2023C17.4027 34.0072 17.4609 34.7987 17.5709 35.5738H10.2878C8.87112 35.5738 7.71863 34.4213 7.71863 33.0045C7.71863 31.5878 8.87112 30.4353 10.2878 30.4353ZM10.2878 42.6885C8.87112 42.6885 7.71863 41.536 7.71863 40.1193C7.71863 38.7026 8.87112 37.5501 10.2878 37.5501H17.9743C18.473 39.4091 19.283 41.1416 20.3452 42.6885H10.2878ZM34.2014 48.0247C26.0283 48.0247 19.379 41.3753 19.379 33.2023C19.379 25.0292 26.0283 18.3799 34.2014 18.3799C42.3745 18.3799 49.0238 25.0292 49.0238 33.2023C49.0238 41.3753 42.3745 48.0247 34.2014 48.0247Z" fill="black"/>
</svg>
