<svg width="48" height="52" viewBox="0 0 48 52" fill="none" xmlns="http://www.w3.org/2000/svg">
<path d="M47.4592 5.16506C47.4564 2.8659 45.5671 1.00275 43.2357 1H9.44763C7.11621 1.00275 5.22691 2.8659 5.22412 5.16506V20.9923C5.22412 21.4524 5.60231 21.8253 6.06882 21.8253C6.53534 21.8253 6.91353 21.4524 6.91353 20.9923V5.16506C6.91353 3.78488 8.04808 2.66602 9.44763 2.66602H43.2357C44.6353 2.66602 45.7698 3.78488 45.7698 5.16506V37.6525H39.8569C37.5255 37.6553 35.6362 39.5184 35.6334 41.8176V47.6487H32.2546C31.7881 47.6487 31.4099 48.0216 31.4099 48.4817C31.4099 48.9418 31.7881 49.3147 32.2546 49.3147H36.4781C36.7021 49.3147 36.9169 49.2269 37.0753 49.0706L47.2117 39.0745C47.3702 38.9183 47.4592 38.7065 47.4592 38.4856V5.16506ZM39.8569 39.3186H44.5754L37.3228 46.4708V41.8176C37.3228 40.4374 38.4574 39.3186 39.8569 39.3186Z" fill="black" stroke="black" stroke-width="0.3"/>
<path d="M12.8266 5.99805H11.1372C10.6707 5.99805 10.2925 6.371 10.2925 6.83106C10.2925 7.29112 10.6707 7.66407 11.1372 7.66407H12.8266C13.2931 7.66407 13.6713 7.29112 13.6713 6.83106C13.6713 6.371 13.2931 5.99805 12.8266 5.99805Z" fill="black" stroke="black" stroke-width="0.3"/>
<path d="M41.5466 5.99805H16.2055C15.739 5.99805 15.3608 6.371 15.3608 6.83106C15.3608 7.29112 15.739 7.66407 16.2055 7.66407H41.5466C42.0131 7.66407 42.3913 7.29112 42.3913 6.83106C42.3913 6.371 42.0131 5.99805 41.5466 5.99805Z" fill="black" stroke="black" stroke-width="0.3"/>
<path d="M12.8266 10.9961H11.1372C10.6707 10.9961 10.2925 11.369 10.2925 11.8291C10.2925 12.2892 10.6707 12.6621 11.1372 12.6621H12.8266C13.2931 12.6621 13.6713 12.2892 13.6713 11.8291C13.6713 11.369 13.2931 10.9961 12.8266 10.9961Z" fill="black" stroke="black" stroke-width="0.3"/>
<path d="M16.2055 12.6621H35.6337C36.1002 12.6621 36.4784 12.2892 36.4784 11.8291C36.4784 11.369 36.1002 10.9961 35.6337 10.9961H16.2055C15.739 10.9961 15.3608 11.369 15.3608 11.8291C15.3608 12.2892 15.739 12.6621 16.2055 12.6621Z" fill="black" stroke="black" stroke-width="0.3"/>
<path d="M12.8266 15.9941H11.1372C10.6707 15.9941 10.2925 16.3671 10.2925 16.8272C10.2925 17.2872 10.6707 17.6602 11.1372 17.6602H12.8266C13.2931 17.6602 13.6713 17.2872 13.6713 16.8272C13.6713 16.3671 13.2931 15.9941 12.8266 15.9941Z" fill="black" stroke="black" stroke-width="0.3"/>
<path d="M16.2055 17.6602H29.7208C30.1873 17.6602 30.5655 17.2872 30.5655 16.8272C30.5655 16.3671 30.1873 15.9941 29.7208 15.9941H16.2055C15.739 15.9941 15.3608 16.3671 15.3608 16.8272C15.3608 17.2872 15.739 17.6602 16.2055 17.6602Z" fill="black" stroke="black" stroke-width="0.3"/>
<path d="M44.0805 18.4932C44.0805 18.0331 43.7023 17.6602 43.2358 17.6602C42.7693 17.6602 42.3911 18.0331 42.3911 18.4932V30.1553C42.3911 30.6154 42.7693 30.9884 43.2358 30.9884C43.7023 30.9884 44.0805 30.6154 44.0805 30.1553V18.4932Z" fill="black" stroke="black" stroke-width="0.3"/>
<path d="M43.2358 32.6545C42.7693 32.6545 42.3911 33.0275 42.3911 33.4876V35.1536C42.3911 35.6136 42.7693 35.9866 43.2358 35.9866C43.7023 35.9866 44.0805 35.6136 44.0805 35.1536V33.4876C44.0805 33.0275 43.7023 32.6545 43.2358 32.6545Z" fill="black" stroke="black" stroke-width="0.3"/>
<path d="M1.00072 47.5803C0.97265 48.9279 1.77067 50.1595 3.02256 50.7005C4.27444 51.2416 5.73357 50.9855 6.71935 50.0518L14.9383 42.2715L23.1564 50.0518C24.0249 50.8881 25.2815 51.2007 26.4483 50.8707C27.6151 50.5408 28.5128 49.6189 28.7998 48.4559C29.0869 47.2928 28.7194 46.0673 27.8369 45.2454L19.8173 37.6524L27.8369 30.0595C28.8229 29.1263 29.1417 27.6992 28.6447 26.4438C28.1477 25.1884 26.9327 24.3518 25.5663 24.3242C24.6695 24.3025 23.8013 24.6372 23.1573 25.2531L14.9383 33.0334L6.7202 25.2531C6.07378 24.6409 5.20725 24.3071 4.31126 24.3251C3.41526 24.3431 2.56321 24.7113 1.94256 25.3488C0.650538 26.6762 0.694026 28.7851 2.0397 30.0595L10.0593 37.6524L2.0397 45.2454C1.39049 45.8552 1.01625 46.6962 1.00072 47.5803ZM3.20877 46.4466L11.8636 38.253C12.0293 38.096 12.123 37.8791 12.123 37.6524C12.123 37.4258 12.0293 37.2089 11.8636 37.0518L3.20961 28.8583C2.71633 28.3918 2.55673 27.678 2.80527 27.0501C3.05382 26.4222 3.66153 26.0039 4.34489 25.9903C4.79361 25.9774 5.22836 26.1449 5.54944 26.4543L14.3538 34.7894C14.6805 35.0983 15.1961 35.0983 15.5228 34.7894L24.3272 26.4543C24.6469 26.1428 25.0826 25.975 25.5317 25.9903C26.2151 26.0039 26.8228 26.4222 27.0713 27.0501C27.3199 27.678 27.1603 28.3918 26.667 28.8583L18.013 37.0518C17.8473 37.2089 17.7536 37.4258 17.7536 37.6524C17.7536 37.8791 17.8473 38.096 18.013 38.253L26.667 46.4466C26.9902 46.7526 27.1768 47.1728 27.1858 47.6146C27.1949 48.0564 27.0256 48.4836 26.7151 48.8023C26.0598 49.4442 25.0087 49.4655 24.3272 48.8506L15.5228 40.5205C15.1961 40.2116 14.6805 40.2116 14.3538 40.5205L5.54944 48.8506C4.86795 49.4665 3.81593 49.4452 3.16062 48.8023C2.85032 48.4835 2.68115 48.0562 2.69034 47.6144C2.69952 47.1726 2.88632 46.7525 3.20961 46.4466H3.20877Z" fill="black" stroke="black" stroke-width="0.3"/>
</svg>
