<svg width="60" height="80" viewBox="0 0 60 80" fill="none" xmlns="http://www.w3.org/2000/svg">
<path d="M30 0C13.457 0 0 13.4586 0 30C0 52.1322 27.6791 78.4375 28.8575 79.5475C29.1797 79.8486 29.5898 80 30 80C30.4102 80 30.8203 79.8486 31.1427 79.5475C32.3209 78.4375 60 52.1322 60 30C60 13.4586 46.543 0 30 0ZM30 46.6667C20.8105 46.6667 13.3333 39.1895 13.3333 30C13.3333 20.8105 20.8106 13.3333 30 13.3333C39.1894 13.3333 46.6667 20.8106 46.6667 30C46.6667 39.1894 39.1895 46.6667 30 46.6667Z" fill="#F67501"/>
</svg>
