<svg width="37" height="55" viewBox="0 0 37 55" fill="none" xmlns="http://www.w3.org/2000/svg">
<path d="M37 48.669V54.0833C37 54.5895 36.5909 54.9999 36.0864 54.9999C35.5819 54.9999 35.1728 54.5895 35.1728 54.0833V48.669C35.1728 44.4534 31.7726 41.0419 27.5703 41.0419C25.582 41.0419 23.7779 40.0257 22.7446 38.3232C22.482 37.891 22.6186 37.327 23.0496 37.0638C23.4802 36.8001 24.0424 36.9373 24.305 37.3698C25.0041 38.5213 26.2249 39.2088 27.5703 39.2088C32.7821 39.2085 37 43.4399 37 48.669ZM19.9702 38.7808C18.0578 39.199 16.1166 38.7747 14.5767 37.7138C14.8408 37.1275 15.0031 36.4965 15.0546 35.8428C22.8855 38.1554 30.7191 32.2258 30.7191 24.0805C30.7191 16.3069 30.7286 16.4306 30.6972 16.1119C30.5769 14.8485 28.7574 15.0204 28.8788 16.2916C28.8993 16.4995 28.892 16.6813 28.892 24.0804C28.892 29.8294 24.2302 34.5064 18.4999 34.5064C12.7697 34.5064 8.10793 29.8294 8.10793 24.0804C8.10793 22.0156 8.08601 20.4167 8.07882 19.2177C8.06032 16.2096 10.8329 13.9239 13.8332 14.6455C18.0647 15.6635 19.7702 18.3114 25.1939 18.058C25.6978 18.0343 26.0872 17.6052 26.0636 17.0995C26.04 16.5939 25.6149 16.2058 25.1082 16.2269C20.2187 16.4575 18.8634 13.9708 14.2593 12.863C10.0966 11.8612 6.22618 15.0387 6.25165 19.229C6.25782 20.2036 6.27061 21.2709 6.277 22.5855C5.66878 22.2673 5.25287 21.6363 5.25287 20.9104C5.25287 20.8894 5.25299 16.1495 5.25265 16.1286C5.20685 14.0511 5.50183 8.83088 9.22148 5.23357C13.3773 1.21464 19.8793 1.21316 24.9349 2.9811L24.2046 3.28266C23.3327 3.64252 23.5149 4.9405 24.455 5.04155L26.0609 5.2141C29.1515 5.54612 31.8847 7.16307 33.6358 9.67562C32.4866 11.0767 31.861 12.8207 31.861 14.6581V20.9102C31.861 21.4164 32.27 21.8268 32.7746 21.8268C33.2791 21.8268 33.6881 21.4164 33.6881 20.9102V14.6581C33.6881 13.0652 34.3013 11.5639 35.4146 10.4309C35.7245 10.1158 35.7626 9.60733 35.5464 9.25732C33.7249 6.3267 31.0145 4.43971 27.9213 3.68285C28.4217 3.25459 28.3232 2.45889 27.744 2.16501C25.0881 0.819145 21.2995 -0.12561 17.694 0.0135941C8.57283 0.368307 3.23351 7.20248 3.42594 16.159V20.9105C3.42594 22.664 4.64877 24.1376 6.29013 24.5333C6.4604 29.2148 9.25916 33.2347 13.247 35.1477V35.3888C13.247 37.502 11.5403 39.2089 9.42966 39.2089C4.20705 39.2089 0 43.4504 0 48.6691V54.0834C0 54.5896 0.409057 55 0.913583 55C1.41811 55 1.82717 54.5896 1.82717 54.0834V48.6691C1.82717 44.4537 5.22741 41.042 9.42966 41.042C10.9854 41.042 12.4669 40.4165 13.5627 39.2382C15.5104 40.5719 17.9558 41.0976 20.3593 40.572C20.8523 40.4643 21.1649 39.9759 21.0574 39.4813C20.9499 38.9866 20.4629 38.6727 19.9702 38.7808ZM27.75 50.3025H25.0092C24.5047 50.3025 24.0956 50.7129 24.0956 51.219C24.0956 51.7252 24.5047 52.1356 25.0092 52.1356H27.75C28.2545 52.1356 28.6636 51.7252 28.6636 51.219C28.6636 50.7129 28.2545 50.3025 27.75 50.3025Z" fill="black"/>
</svg>
