<svg width="267" height="42" viewBox="0 0 267 42" fill="none" xmlns="http://www.w3.org/2000/svg">
<path d="M15.54 29L14.31 25.64H7.05L5.7 29H0.21L7.89 8.99H13.56L21.09 29H15.54ZM8.49 21.68H12.93L10.68 15.2L8.49 21.68ZM23.3988 8.99H31.4988C33.6188 8.99 35.2488 9.58 36.3888 10.76C37.5288 11.92 38.0988 13.42 38.0988 15.26C38.0988 17.02 37.5688 18.41 36.5088 19.43C35.7688 20.13 34.8488 20.59 33.7488 20.81L40.0188 29H33.5688L28.5888 21.32V29H23.3988V8.99ZM28.5888 13.01V17.96H29.5788C30.6988 17.96 31.5388 17.69 32.0988 17.15C32.5388 16.71 32.7588 16.15 32.7588 15.47C32.7588 14.77 32.5288 14.21 32.0688 13.79C31.5488 13.27 30.7188 13.01 29.5788 13.01H28.5888ZM42.2074 8.99H47.3974V29H42.2074V8.99ZM68.0517 8.99L58.6317 24.59H67.0317V29H49.9017L59.3817 13.4H51.5217V8.99H68.0517ZM90.9558 19.01C90.9558 21.97 89.9058 24.46 87.8058 26.48C85.7258 28.46 83.0958 29.45 79.9158 29.45C76.7358 29.45 74.1058 28.46 72.0258 26.48C69.9258 24.46 68.8758 21.97 68.8758 19.01C68.8758 17.63 69.1358 16.28 69.6558 14.96C70.1958 13.64 70.9858 12.49 72.0258 11.51C74.1058 9.53 76.7358 8.54 79.9158 8.54C83.0958 8.54 85.7258 9.53 87.8058 11.51C88.8458 12.49 89.6258 13.64 90.1458 14.96C90.6858 16.28 90.9558 17.63 90.9558 19.01ZM79.9158 13.58C78.2758 13.58 76.9258 14.11 75.8658 15.17C74.8058 16.21 74.2758 17.52 74.2758 19.1C74.2758 20.56 74.8058 21.8 75.8658 22.82C76.9658 23.88 78.3158 24.41 79.9158 24.41C81.5558 24.41 82.8958 23.89 83.9358 22.85C85.0158 21.77 85.5558 20.49 85.5558 19.01C85.5558 17.49 85.0158 16.21 83.9358 15.17C82.8158 14.11 81.4758 13.58 79.9158 13.58ZM99.458 29H94.268V8.99H99.458L109.028 21.23V8.99H114.218V29H109.028L99.458 16.76V29ZM131.849 29L130.619 25.64H123.359L122.009 29H116.519L124.199 8.99H129.869L137.399 29H131.849ZM124.799 21.68H129.239L126.989 15.2L124.799 21.68Z" fill="black"/>
<path d="M161.079 22.31V28.46C159.259 29.12 157.759 29.45 156.579 29.45C153.459 29.45 150.879 28.45 148.839 26.45C147.879 25.49 147.129 24.37 146.589 23.09C146.069 21.79 145.809 20.48 145.809 19.16C145.809 17.78 146.079 16.44 146.619 15.14C147.179 13.84 147.919 12.72 148.839 11.78C150.879 9.7 153.399 8.66 156.399 8.66C157.839 8.66 159.399 9 161.079 9.68V15.89C159.899 14.43 158.389 13.7 156.549 13.7C155.129 13.7 153.929 14.14 152.949 15.02C151.789 16.1 151.209 17.47 151.209 19.13C151.209 20.71 151.749 22.01 152.829 23.03C153.809 23.95 155.049 24.41 156.549 24.41C158.289 24.41 159.799 23.71 161.079 22.31ZM177.815 29L176.585 25.64H169.325L167.975 29H162.485L170.165 8.99H175.835L183.365 29H177.815ZM170.765 21.68H175.205L172.955 15.2L170.765 21.68ZM194.134 22.37H190.864V29H185.674V8.99H193.954C196.094 8.99 197.784 9.59 199.024 10.79C200.264 11.99 200.884 13.61 200.884 15.65C200.884 17.81 200.294 19.47 199.114 20.63C197.934 21.79 196.274 22.37 194.134 22.37ZM190.864 13.19V18.17H192.604C193.604 18.17 194.334 17.96 194.794 17.54C195.234 17.16 195.454 16.55 195.454 15.71C195.454 14.91 195.254 14.31 194.854 13.91C194.394 13.43 193.654 13.19 192.634 13.19H190.864ZM203.633 8.99H208.823V29H203.633V8.99ZM224.858 13.4H220.598V29H215.408V13.4H211.148V8.99H224.858V13.4ZM239.69 29L238.46 25.64H231.2L229.85 29H224.36L232.04 8.99H237.71L245.24 29H239.69ZM232.64 21.68H237.08L234.83 15.2L232.64 21.68ZM247.549 8.99H252.739V24.59H258.979V29H247.549V8.99Z" fill="#F67501"/>
</svg>
